<svg width="64" height="64" viewBox="0 0 64 64" fill="none" xmlns="http://www.w3.org/2000/svg">
<path d="M0 16C0 7.16344 7.16344 0 16 0H48C56.8366 0 64 7.16344 64 16V48C64 56.8366 56.8366 64 48 64H16C7.16344 64 0 56.8366 0 48V16Z" fill="white"/>
<path fill-rule="evenodd" clip-rule="evenodd" d="M11 56.33V32.33C11 20.54 20.54 11 32.33 11C44.12 11 53.66 20.54 53.66 32.33V56.33H11ZM24.33 56.33V40.33C24.33 35.92 27.92 32.33 32.33 32.33C36.74 32.33 40.33 35.92 40.33 40.33V56.33H24.33Z" fill="#021F59"/>
<path d="M37.6667 9.33333C37.6667 12.2789 35.2789 14.6667 32.3333 14.6667C29.3878 14.6667 27 12.2789 27 9.33333C27 6.38781 29.3878 4 32.3333 4C35.2789 4 37.6667 6.38781 37.6667 9.33333Z" fill="#C4AEF2"/>
</svg>
